<?xml version="1.0" encoding="utf-8"?>
<!-- Generator: Adobe Illustrator 16.0.0, SVG Export Plug-In . SVG Version: 6.00 Build 0)  -->
<!DOCTYPE svg PUBLIC "-//W3C//DTD SVG 1.1//EN" "http://www.w3.org/Graphics/SVG/1.1/DTD/svg11.dtd">
<svg version="1.1" id="Layer_1" xmlns="http://www.w3.org/2000/svg" xmlns:xlink="http://www.w3.org/1999/xlink" x="0px" y="0px"
	 width="541.614px" height="562.164px" viewBox="0 0 541.614 562.164" enable-background="new 0 0 541.614 562.164"
	 xml:space="preserve">
<g>
	<g>
		<path fill="#BABABA" d="M277.229,343.283c0,3.042-2.468,5.508-5.508,5.508c-3.043,0-5.508-2.466-5.508-5.508v-57.119
			c0-3.043,2.466-5.508,5.508-5.508s5.508,2.467,5.508,5.508V343.283L277.229,343.283z"/>
		<path fill="#FFFFFF" d="M0.005,0h247.713c-2.024,0.36-4.048,0.761-6.083,1.058c-19.286,2.029-38.365,6.211-56.419,13.034
			c-22.908,8.487-44.007,21.009-62.928,35.896c-11.826-6.334-24.596-10.858-37.406-15c-7.927-4.875-16.655-8.41-25.515-11.442
			c-11.725-3.95-23.81-7.053-36.17-8.547c-4.125-0.366-8.293-0.44-12.424-0.193c-2.56,0.28-5.316,0.851-7.247,2.594
			c-1.493,1.364-2.164,3.281-2.672,5.137C0.642,22.883,0.217,23.565,0,23.913V0H0.005z"/>
		<path fill="#FFDFD3" d="M247.718,0h9.466c-5.186,0.298-10.359,0.771-15.55,1.058C243.67,0.76,245.693,0.36,247.718,0z"/>
		<path fill="#605D5E" d="M257.192,0h30.813c23.933,1.036,47.791,5.318,70.157,13.597c21.986,8,42.383,19.681,60.735,33.672
			c11.602-5.671,23.906-9.854,36.242-13.784c12.447-3.478,25.078-6.504,37.95-8.128c6.862-0.701,13.853-1.349,20.698-0.174
			c3.275,0.606,6.807,1.631,8.927,4.254c2.627,3.284,3.17,7.562,3.361,11.562c-0.421,15.802-6.493,30.727-11.986,45.427
			c-2.22,4.236-3.94,8.691-6.09,12.966c-4.178,8.41-8.44,16.826-13.831,24.605c-0.636,0.681-0.37,1.49,0.219,2.101
			c11.712,15.403,22.832,31.194,33.832,47.073c5.13,7.061,9.416,14.783,11.589,23.166c2.905,10.226,2.161,21.151-1.19,31.191
			c-0.122,0.247-0.346,0.745-0.462,0.994c-1.652,0.275-3.293,0.564-4.934,0.866c-0.254-0.231-0.774-0.691-1.029-0.922
			c-20.068,3.322-39.41,9.539-58.929,14.94c-25.438,7.273-50.896,14.537-76.693,20.598c-41.75,9.803-84.513,17.016-127.64,16.752
			c-27.933,0.132-55.789-2.982-83.228-7.815c-38.155-6.621-75.478-16.851-112.593-27.447c-14.751-4.203-29.465-8.522-44.318-12.377
			c-7.406-1.903-14.894-3.511-22.458-4.763c-3.352-9.922-4.307-20.681-1.735-30.872c1.958-7.856,5.569-15.295,10.301-21.974
			c10.627-15.52,21.608-30.819,32.745-46.008c-3.906-2.918-6.295-7.149-8.775-11.152c-5.002-8.449-9.367-17.226-13.42-26.122
			c-1.2-2.546-2.111-5.211-3.46-7.7c-2.689-7.279-5.484-14.539-7.521-22.019c-2.188-7.85-3.98-15.97-3.279-24.139
			c0.515-4.289,2.265-9.052,6.657-11.018c5.37-2.299,11.438-2.362,17.225-2.187c16.996,0.994,33.61,5.047,49.824,9.82
			c12.81,4.144,25.58,8.667,37.406,15c18.921-14.887,40.018-27.408,62.927-35.896c18.055-6.825,37.132-11.007,56.42-13.035
			c5.19-0.282,10.364-0.756,15.549-1.054H257.192z"/>
		<path fill="#262525" d="M496.484,18.274c8.718-2.034,17.615-3.689,26.604-3.744c4.021,0.333,8.826,0.309,11.635,3.541
			c2.986,3.764,2.416,8.798,2.12,13.223c-1.479,10.22-5.147,20.012-9.181,29.539c-3.904,8.805-8.156,17.534-13.575,25.605
			c5.493-14.7,11.565-29.625,11.986-45.427c-0.19-4-0.734-8.278-3.36-11.563c-2.12-2.624-5.651-3.647-8.927-4.253
			c-6.846-1.175-13.836-0.528-20.699,0.174c-12.872,1.624-25.502,4.65-37.95,8.127C468.015,26.475,482.174,21.834,496.484,18.274z"
			/>
		<path fill="#262525" d="M3.531,17.405c1.93-1.743,4.688-2.313,7.247-2.594c4.131-0.247,8.299-0.174,12.424,0.193
			c12.359,1.495,24.445,4.598,36.17,8.548c8.859,3.031,17.588,6.565,25.515,11.441c-16.213-4.773-32.828-8.826-49.824-9.82
			c-5.786-0.176-11.854-0.112-17.225,2.187c-4.393,1.966-6.145,6.729-6.657,11.018c-0.701,8.167,1.092,16.289,3.279,24.139
			c2.037,7.479,4.832,14.739,7.521,22.019c-0.69-0.345-0.956-1.036-0.89-1.761C13.745,70.081,7.573,56.722,3.3,42.79
			c-1.585-6.634-3.232-13.386-2.44-20.247C1.366,20.687,2.037,18.77,3.531,17.405L3.531,17.405z"/>
		<path fill="#D5CEBF" d="M0.862,22.546c-0.79,6.863,0.855,13.613,2.441,20.248c-1.993-4.066-2.27-8.619-3.296-12.941v-5.931
			C0.223,23.576,0.649,22.892,0.862,22.546z"/>
		<path fill="#F9A5A5" d="M476.937,51.127c4.44-0.312,9.206-0.838,13.348,1.084c3.288,1.439,6.143,4.581,5.909,8.217
			c-0.271,5.661-3.2,10.765-6.104,15.56c-2.618,4.278-5.586,8.353-8.216,12.62c-2.311,3.565-4.977,7.143-8.895,9.241
			c-0.615,0.449-1.357,0.185-1.722-0.399c-8.995-10.434-18.503-20.472-28.546-29.995c-0.675-0.408-0.59-1.206,0.07-1.583
			c7.78-6.064,17.008-10.255,26.547-13.148C471.847,52.12,474.354,51.462,476.937,51.127L476.937,51.127z"/>
		<path fill="#F9A5A5" d="M54.546,56.439c10.489-1.209,20.763,2.266,30.099,6.477c4.564,2.085,8.889,4.658,12.856,7.65
			c0.82,0.434,0.066,1.146-0.329,1.551c-9.786,9.618-19.081,19.691-27.827,30.181c-0.401,0.729-1.415,0.895-2.071,0.372
			c-3.284-2.081-5.673-5.173-7.729-8.325c-4.342-7.017-9.498-13.633-12.843-21.17c-1.161-3.421-2.6-7.235-1.06-10.764
			C47.174,59.026,50.918,57.15,54.546,56.439L54.546,56.439z"/>
		<path fill="#BABABA" d="M538.149,228.533c0.116-0.248,0.341-0.746,0.463-0.993c0.184,2.648-1.242,5.007-2.3,7.363
			c-4.391,8.952-10.386,17.151-17.4,24.414c-10.491,10.995-22.751,20.353-35.764,28.482c-15.269,9.798-31.666,17.875-48.423,25.082
			c-21.415,9.01-43.586,16.386-66.194,22.169c-2.039,0.472-4.063,0.977-6.02,1.69c-3.362,0.339-6.549,1.445-9.845,2.092
			c-25.28,5.439-51.071,9.201-76.999,9.819c-2.865-0.589-5.739,0.546-8.599-0.113c0.896-0.442,2.135-0.919,1.828-2.12
			c-0.028-9.896,0.012-19.79-0.034-29.684c9.992,1.494,20.041-4.653,24.258-13.14c1.51-2.784,1.698-6.473-0.536-8.961
			c-3.297-3.923-8.594-5.674-13.607-6.61c-3.897-0.727-7.893-0.814-11.839-0.479c0.65-0.41,1.795-0.613,1.699-1.569
			c0.145-1.736,0.062-3.474,0.084-5.208c43.132,0.265,85.894-6.948,127.639-16.752c25.799-6.06,51.256-13.324,76.693-20.597
			c19.519-5.402,38.86-11.618,58.93-14.94c0.255,0.229,0.775,0.69,1.029,0.922c1.638-0.303,3.279-0.592,4.932-0.867H538.149z"/>
		<path fill="#BABABA" d="M6.321,228.362c7.564,1.252,15.052,2.859,22.458,4.763c14.854,3.853,29.567,8.174,44.319,12.377
			c37.115,10.596,74.438,20.826,112.592,27.447c27.438,4.833,55.295,7.947,83.229,7.814c-0.023,1.734,0.06,3.472-0.085,5.209
			c0.096,0.954-1.048,1.158-1.699,1.568c-5.984,0.743-12.426,2.299-16.576,6.768c-2.579,2.621-2.324,6.685-0.484,9.613
			c3.894,6.588,10.959,11.48,18.787,12.81c0.046,9.894,0.006,19.788,0.034,29.685c0.306,1.199-0.933,1.677-1.829,2.12
			c-27.721-0.774-55.182-5.322-82.129-11.388c-33.405-7.993-66.064-19.209-96.593-34.475c-18.756-9.462-36.803-20.469-52.499-34.145
			c-10.009-8.796-19.01-18.83-25.323-30.394C8.914,234.971,7.209,231.802,6.321,228.362L6.321,228.362z"/>
		<path fill="#262525" d="M250.558,294.311c4.15-4.468,10.593-6.023,16.576-6.768c3.946-0.336,7.941-0.247,11.839,0.479
			c5.014,0.937,10.312,2.687,13.607,6.609c2.235,2.49,2.048,6.178,0.536,8.961c-4.217,8.487-14.266,14.636-24.258,13.14
			c-7.828-1.329-14.894-6.222-18.787-12.809C248.234,300.995,247.979,296.931,250.558,294.311z"/>
		<path fill="#605D5E" d="M352.664,338.828c3.296-0.646,6.482-1.754,9.845-2.092c1.472,3.841,2.895,7.702,4.387,11.541
			c0.572,0.188,1.146,0.383,1.722,0.581c-0.347,0.045-1.031,0.135-1.376,0.179c5.963,17.784,11.719,35.819,13.548,54.493
			c1.104,10.127-0.347,20.579-4.771,29.889c-6.415,13.084-18.265,23.067-31.43,29.831c-1.575,0.701-3.148,1.479-4.365,2.693
			c-0.141-0.06-0.418-0.191-0.554-0.249c-3.331,1.522-6.755,2.844-10.168,4.177c0.179,5.972,0.949,11.923,1.946,17.825
			c2.35,10.46,8.417,19.64,13.336,29.117c-5.214,7.392-13.556,12.652-22.706,14.429c-8.519,1.598-17.632,0.338-25.197-3.79
			c-3.086-1.51-5.621-3.781-8.31-5.827c-3.604-13.833-4.386-28.196-3.527-42.38c-5.31,0.298-10.613,0.687-15.935,0.682
			c0.298,5.816,0.283,11.642,0.148,17.465c-0.313,8.507-1.705,16.942-3.686,25.228c-6.782,6.298-16.005,10.444-25.567,10.359
			c-11.604,0.446-23.131-5.131-29.938-14.034c-0.271-0.469-0.482-0.956-0.618-1.467c4.286-8.146,9.248-16.061,12.132-24.796
			c1.846-5.801,2.201-11.898,2.854-17.892c-5.474-1.154-10.644-3.253-15.953-4.893c-0.125,0.305-0.374,0.917-0.497,1.223
			c-0.034-0.424-0.104-1.271-0.143-1.699c-9.053-3.745-17.703-8.735-24.592-15.543c-8.027-7.791-13.466-17.96-15.224-28.763
			c-1.193-5.836-1.02-11.815-0.73-17.724c1.893-19.663,7.242-38.85,13.275-57.69c1.364-4.215,2.883-8.375,4.365-12.551
			c26.947,6.064,54.408,10.611,82.129,11.387c2.859,0.658,5.734-0.477,8.599,0.112C301.593,348.029,327.382,344.268,352.664,338.828
			L352.664,338.828z"/>
		<path fill="#404040" d="M367.254,349.036c0.344-0.044,1.029-0.135,1.376-0.179c5.179,1.836,9.396,5.457,13.169,9.206
			c7.05,7.444,12.669,16.055,17.158,25.11c3.99,8.185,7.256,16.789,8.628,25.757c1.239,8.302-0.352,16.913-4.28,24.402
			c-3.703,6.836-9.03,12.901-15.67,17.303c0.56,1.045,1.267,2.017,2.146,2.854c4.228,4.218,8.288,8.601,12.726,12.624
			c-4.009,14.42-19.521,24.809-35.074,24.193c-6.037,0.182-11.782-1.813-17.233-4.053c-3.904-6.49-7.33-13.258-9.963-20.313
			c1.217-1.214,2.789-1.991,4.364-2.692c13.166-6.764,25.016-16.747,31.431-29.831c4.424-9.311,5.876-19.762,4.771-29.89
			C378.973,384.855,373.216,366.821,367.254,349.036L367.254,349.036z"/>
		<path fill="#404040" d="M161.928,362.048c5.049-5.385,10.86-11.028,18.646-12.345c-6.034,18.841-11.384,38.026-13.275,57.691
			c-0.289,5.908-0.462,11.889,0.73,17.723c1.756,10.804,7.194,20.973,15.223,28.764c6.889,6.809,15.541,11.799,24.593,15.542
			c0.038,0.429,0.106,1.275,0.142,1.7c-2.394,6.053-5.497,11.82-8.715,17.514c-9.006,4.774-20.19,5.622-29.873,2.25
			c-10.505-3.517-18.992-11.929-22.349-22.044c1.762-1.781,3.504-3.579,5.214-5.406c2.836-3.131,6.269-5.756,8.73-9.201
			c-5.446-3.564-10.61-7.662-14.363-12.899c-5.864-7.569-9.159-17-8.728-26.438c0.407-9.063,3.567-17.754,7.126-26.08
			C149.325,379.209,154.947,370.107,161.928,362.048L161.928,362.048z"/>
		<path fill="#605D5E" d="M110.655,392.61c10.694-4.542,22.874-6.446,34.376-3.79c-3.558,8.325-6.719,17.016-7.126,26.079
			c-0.431,9.438,2.865,18.868,8.729,26.438c3.753,5.237,8.917,9.336,14.362,12.899c-2.461,3.444-5.893,6.07-8.729,9.201
			c-1.71,1.827-3.452,3.625-5.214,5.406c-4.296,3.756-7.908,8.152-11.095,12.797c-20.544,8.736-44.365,9.313-65.82,3.339
			c-11.207-2.929-22.438-6.926-31.431-14.15c-6.754-5.11-11.62-12.304-14.252-20.094c-0.023-0.143-0.063-0.434-0.087-0.574
			c2.594,3.922,6.895,7.076,11.878,7.401c5.185,0.339,10.049-2.046,14.13-4.868c5.869-4.321,10.823-9.835,14.197-16.148
			c2.614-5.016,3.628-10.715,3.492-16.29c-1.061-0.252-2.105-0.528-3.154-0.812c0.818-0.035,1.633-0.104,2.441-0.202
			c7.447-0.901,14.386-4.369,20.153-8.862C95.228,404.476,101.662,396.892,110.655,392.61L110.655,392.61z"/>
		<path fill="#404040" d="M401.894,465.805c6.89,6.27,13.301,13.908,14.876,23.12c0.7,5.584,0.193,11.756-3.477,16.396
			c-4.19,5.143-10.609,8.559-17.357,9.431c-6.605,1.079-13.405-0.151-19.599-2.406c-8.451-3.248-16.094-8.669-21.296-15.84
			c-2.106-3.372-3.811-6.964-5.457-10.558c5.45,2.237,11.196,4.233,17.232,4.053C382.371,490.612,397.883,480.225,401.894,465.805
			L401.894,465.805z"/>
		<path fill="#404040" d="M136.567,481.02c3.187-4.646,6.8-9.042,11.095-12.797c3.355,10.114,11.843,18.527,22.349,22.044
			c9.682,3.372,20.867,2.525,29.873-2.25c-0.757,2.438-1.889,4.743-3.067,7.026c-3.415,6.925-9.646,12.22-16.361,16.223
			c-7.827,4.408-17.094,6.992-26.222,5.801c-6.571-0.926-13.149-3.72-17.26-8.858c-4.093-4.581-4.677-10.985-4.024-16.739
			C133.359,487.77,135.034,484.381,136.567,481.02L136.567,481.02z"/>
		<path fill="#605D5E" d="M344.793,516.198c4.982,8.251,8.984,17.977,6.919,27.628c-1.064,4.204-2.843,8.438-5.994,11.617
			c-6.182,5.509-15.428,7.213-23.556,5.503c-7.626-1.409-14.361-5.58-19.916-10.612c-4.478-4.402-8.328-9.477-10.732-15.188
			c-1.932-4.49-2.127-9.4-2.933-14.137c2.689,2.045,5.226,4.315,8.31,5.827c7.565,4.127,16.679,5.386,25.197,3.79
			C331.238,528.849,339.579,523.59,344.793,516.198z"/>
		<path fill="#605D5E" d="M202.308,536.161c0.779-7.089,3.957-13.689,7.449-19.904c0.136,0.512,0.347,0.999,0.618,1.468
			c6.81,8.901,18.336,14.479,29.938,14.034c9.563,0.084,18.785-4.063,25.567-10.36c-0.873,5.279-1.066,10.816-3.613,15.689
			c-3.097,6.318-7.551,12.085-13.29,16.454c-6.352,5.09-14.431,8.482-22.802,8.622c-6.145-0.169-12.53-1.883-17.12-5.936
			C203.74,550.986,201.623,543.304,202.308,536.161L202.308,536.161z"/>
		<g>
			<path fill="#404040" d="M86.994,411.117c0,0,9.278,68.544-36.315,66.5l0.012-0.025l35.876-65.679
				c0.073-0.063,0.146-0.123,0.22-0.184l-0.159,0.062L86.994,411.117L86.994,411.117z"/>
			<path fill="#404040" d="M86.786,411.729l-0.22,0.184l0.061-0.123L86.786,411.729z"/>
			<path fill="#404040" d="M86.627,411.791l-0.061,0.123c-10.637,8.604-20.404,8.102-22.289,7.907v-0.146L86.627,411.791
				L86.627,411.791z"/>
			<path fill="#404040" d="M86.567,411.913l-35.876,65.679l-0.318-0.171l-0.012-0.013l-25.472-28.104
				c40.013,16.573,39.548-25.117,39.389-29.485C66.162,420.015,75.93,420.517,86.567,411.913L86.567,411.913z"/>
			<path fill="#404040" d="M64.278,419.82c0.159,4.368,0.624,46.059-39.389,29.486l-0.195-0.222l39.571-29.633
				c0,0,0,0.074,0.013,0.221l-0.331,0.11C63.947,419.783,64.057,419.807,64.278,419.82L64.278,419.82z"/>
			<path fill="#404040" d="M24.889,449.306l25.472,28.103c-0.612-0.208-19.964-7.222-25.643-28.178
				C24.779,449.258,24.827,449.282,24.889,449.306z"/>
			<path fill="#404040" d="M24.681,449.086l0.037,0.147c-0.049-0.025-0.099-0.036-0.147-0.062L24.681,449.086z"/>
		</g>
		<g>
			<path fill="#404040" d="M86.994,411.117c0,0,9.278,68.544-36.315,66.5l0.012-0.025l35.876-65.679
				c0.073-0.063,0.146-0.123,0.22-0.184l-0.159,0.062L86.994,411.117L86.994,411.117z"/>
			<path fill="#404040" d="M86.786,411.729l-0.22,0.184l0.061-0.123L86.786,411.729z"/>
			<path fill="#404040" d="M86.627,411.791l-0.061,0.123c-10.637,8.604-20.404,8.102-22.289,7.907v-0.146L86.627,411.791
				L86.627,411.791z"/>
			<path fill="#404040" d="M86.567,411.913l-35.876,65.679l-0.318-0.171l-0.012-0.013l-25.472-28.104
				c40.013,16.573,39.548-25.117,39.389-29.485C66.162,420.015,75.93,420.517,86.567,411.913L86.567,411.913z"/>
			<path fill="#404040" d="M64.278,419.82c0.159,4.368,0.624,46.059-39.389,29.486l-0.195-0.222l39.571-29.633
				c0,0,0,0.074,0.013,0.221l-0.331,0.11C63.947,419.783,64.057,419.807,64.278,419.82L64.278,419.82z"/>
			<path fill="#404040" d="M24.889,449.306l25.472,28.103c-0.612-0.208-19.964-7.222-25.643-28.178
				C24.779,449.258,24.827,449.282,24.889,449.306z"/>
			<path fill="#404040" d="M24.681,449.086l0.037,0.147c-0.049-0.025-0.099-0.036-0.147-0.062L24.681,449.086z"/>
		</g>
		<path fill="#605D5E" d="M25.856,379.219c0.314-1.314,0.593-3.365,2.456-3.36c1.331,0.875,1.233,2.613,1.557,3.973
			c1.357,10.373,6.24,20.394,14.097,27.741c5.779,5.561,13.059,9.684,20.944,11.87c0.359,0.097,0.721,0.193,1.08,0.287
			c0.688,0.182,1.377,0.359,2.073,0.524c0.137,5.575-0.877,11.274-3.491,16.29c-3.374,6.313-8.328,11.826-14.197,16.148
			c-4.081,2.822-8.946,5.207-14.13,4.867c-4.983-0.325-9.284-3.479-11.878-7.401c0.023,0.14,0.087,0.574,0.087,0.574
			s-4.429-20.203-4.197-30.433C20.951,406.494,22.907,392.75,25.856,379.219L25.856,379.219z"/>
		<path fill="#404040" d="M123.005,388.987c15.092,60.38-5.104,97.309-5.104,97.309c-26.72,5.703-37.332-0.208-37.332-0.208
			l-0.171-0.294c38.226-22.387,23.513-79.829,21.579-86.745l0.416-0.073c0,0,7.552-9.18,19.792-9.792L123.005,388.987
			L123.005,388.987z"/>
		<path fill="#404040" d="M123.2,388.571"/>
		<path fill="#404040" d="M117.288,486.088"/>
	</g>
	<g>
		
			<ellipse transform="matrix(-0.2783 -0.9605 0.9605 -0.2783 316.9052 647.908)" fill="#262525" cx="401.867" cy="204.895" rx="55.671" ry="127.517"/>
		
			<ellipse transform="matrix(-0.2783 0.9605 -0.9605 -0.2783 378.5765 126.526)" fill="#262525" cx="141.754" cy="205.49" rx="55.672" ry="127.517"/>
	</g>
	<path fill="#FFFFFF" d="M142.307,188.325c8.17-1.305,16.844,3.114,20.399,10.219c2.66,4.791,2.49,10.553,0.587,15.555
		c0.788-3.727,0.718-7.841-1.317-11.213c-2.784-5.06-8.877-8.196-14.844-7.687c-7.733,0.468-14.362,7.185-14.197,14.604
		c-0.266,6.2,4.206,12.165,10.353,14.109c3.143,0.961,6.612,1.079,9.767,0.091c-4.884,2.012-10.624,2.131-15.517,0.061
		c-4.577-1.803-8.305-5.384-10.353-9.668c-2.028-4.41-2.169-9.565-0.436-14.084C129.191,194.06,135.335,189.215,142.307,188.325
		L142.307,188.325z"/>
	<path fill="#FFFFFF" d="M415.113,188.325c8.016-1.27,16.481,2.962,20.172,9.82c3.341,5.913,2.924,13.541-1.051,19.081
		c-4.706,6.859-14.521,10.278-22.628,7.242c3.662,0.56,7.554,0.079,10.787-1.724c5.274-2.832,8.45-8.787,7.657-14.521
		c-0.68-6.519-6.419-12.141-13.247-12.906c-7.46-1.167-15.221,3.777-17.054,10.753c-0.601,2.283-0.459,4.672-0.246,6.998
		c-1.568-4.168-1.563-8.882,0.152-13.005C402.119,193.903,408.243,189.209,415.113,188.325z"/>
	<path fill="#020202" d="M147.13,195.204c5.967-0.509,12.06,2.627,14.844,7.687c2.036,3.372,2.104,7.484,1.316,11.213
		c-1.601,4.582-5.369,8.433-10.24,9.905c-3.154,0.988-6.623,0.87-9.766-0.091c-6.147-1.944-10.618-7.908-10.353-14.109
		C132.768,202.388,139.397,195.672,147.13,195.204z"/>
	<path fill="#020202" d="M399.751,206.06c1.834-6.976,9.594-11.92,17.054-10.753c6.829,0.766,12.569,6.388,13.248,12.906
		c0.793,5.734-2.384,11.689-7.657,14.521c-3.234,1.803-7.124,2.283-10.787,1.724c-5.916-1.208-10.789-5.768-12.104-11.399
		C399.292,210.732,399.152,208.344,399.751,206.06L399.751,206.06z"/>
	<path fill="#FFFFFF" d="M152.638,204.053c3.038-0.999,6.135,2.345,4.726,5.082c-0.922,2.458-4.772,3.138-6.537,1.137
		C148.757,208.422,149.789,204.582,152.638,204.053z"/>
	<path fill="#FFFFFF" d="M418.723,204.065c2.424-0.782,5.355,1.021,5.202,3.551c0.295,3.012-3.915,5.029-6.311,3.081
		C415.027,209.101,415.818,204.867,418.723,204.065z"/>
</g>
</svg>
